<?xml version="1.0" encoding="utf-8"?>
<!-- Generator: Adobe Illustrator 19.1.1, SVG Export Plug-In . SVG Version: 6.00 Build 0)  -->
<svg version="1.1" id="Calque_1" xmlns="http://www.w3.org/2000/svg" xmlns:xlink="http://www.w3.org/1999/xlink" x="0px" y="0px"
	 viewBox="0 0 21 44" style="enable-background:new 0 0 21 44;" xml:space="preserve">
<style type="text/css">
	.st0{display:none;fill:#00AEEF;}
	.st1{fill:#333333;}
	.st2{display:none;}
	.st3{display:inline;fill:#333333;}
</style>
<rect id="background_color" y="-2" class="st0" width="21" height="48"/>
<g id="logo_infographiste-poitiers">
	<path class="st1" d="M0.1,30.1c0.1,0.2,0.3,0.4,0.5,0.5c-0.1,0-0.3,0-0.4,0c-0.1,0-0.1,0-0.1-0.1C0.1,30.4,0.1,30.2,0.1,30.1z"/>
	<path class="st1" d="M20.4,30.6c0.2-0.1,0.4-0.3,0.5-0.5c0,0.1,0,0.3,0,0.4c0,0.1,0,0.1-0.1,0.1C20.7,30.6,20.5,30.6,20.4,30.6z"/>
	<path class="st1" d="M21,11c0-0.2-0.2-0.3-0.4-0.4c0,0-0.1,0-0.1,0c-6.7,0-13.3,0-20,0c0,0-0.1,0-0.1,0c-0.2,0-0.3,0.2-0.4,0.4
		c0,0,0,0.1,0,0.1c0,6.7,0,13.3,0,20c0,0,0,0.1,0,0.1c0,0.2,0.2,0.3,0.4,0.4c0,0,0.1,0,0.1,0c6.7,0,13.3,0,20,0c0,0,0.1,0,0.1,0
		c0.2,0,0.3-0.2,0.4-0.4c0,0,0-0.1,0-0.1c0-6.7,0-13.3,0-20C21,11,21,11,21,11z M20,30.4c0,0.1,0,0.2-0.2,0.2c-4.6,0-9.3,0-13.9,0
		c-0.2,0-0.2,0-0.1-0.2c0.5-1.3,0.9-2.5,1.4-3.8c0.1-0.1,0.1-0.2,0.2-0.1c1,0.3,1.9,0.7,2.9,1c1,0.3,1.9,0.4,2.9,0.2
		c1-0.2,1.8-0.6,2.4-1.4c0.6-0.6,0.9-1.4,1.2-2.2c0.3-0.7,0.5-1.4,0.6-2.1c0.2-1.7-0.3-3.1-1.6-4.2c-0.9-0.7-1.9-1.1-2.9-1.5
		c-1.7-0.6-3.4-1.2-5.1-1.9c-0.1,0-0.2,0-0.2,0.1c-0.6,1.7-1.3,3.5-1.9,5.2c-0.8,2.1-1.5,4.1-2.3,6.2c-0.5,1.5-1.1,2.9-1.6,4.4
		c0,0.1-0.1,0.2-0.2,0.2c-0.1,0-0.3,0-0.4,0C1,30.6,1,30.5,1,30.4c0.1-0.4,0.3-0.8,0.4-1.2c0.5-1.4,1.1-2.9,1.6-4.3
		c0.6-1.7,1.3-3.5,1.9-5.2c0.6-1.7,1.2-3.4,1.9-5.2c0.1-0.3,0.1-0.3-0.2-0.4c-0.4-0.1-0.7-0.3-1.1-0.4c-0.1,0-0.2,0-0.2,0.1
		c-0.6,1.8-1.3,3.5-1.9,5.3c-0.8,2.1-1.6,4.3-2.3,6.4c0,0,0,0,0,0c0-0.1,0-0.1,0-0.2c0-4.5,0-9,0-13.5c0-0.2,0.1-0.2,0.2-0.2
		c6.2,0,12.4,0,18.6,0c0.2,0,0.2,0,0.2,0.2C20,18,20,24.2,20,30.4z M8.3,23.2c0.5-1.5,1.1-2.9,1.6-4.4c0-0.1,0.1-0.1,0.2-0.1
		c0.7,0.2,1.3,0.5,2,0.7c0.4,0.1,0.7,0.3,1,0.6c0.4,0.4,0.6,1,0.5,1.6c-0.1,0.7-0.3,1.3-0.7,1.9c-0.4,0.5-0.9,0.8-1.5,0.8
		c-0.3,0-0.7-0.1-1-0.2c-0.7-0.2-1.3-0.5-2-0.7C8.3,23.4,8.3,23.3,8.3,23.2z"/>
</g>
<g id="icon_email" class="st2">
	<path class="st3" d="M0,13.9c7,0,14,0,21,0c0,4.7,0,9.3,0,14c-7,0-14,0-21,0C0,23.2,0,18.5,0,13.9z M13.1,20.6
		c-0.9,0.7-1.8,1.3-2.6,2c-0.9-0.7-1.8-1.3-2.6-2c-0.1,0.1-0.2,0.1-0.2,0.2C6.3,22,5,23.1,3.7,24.3c-0.1,0-0.1,0.1-0.2,0.1
		c0-0.1,0-0.2,0.1-0.2c0.7-0.8,1.4-1.6,2.2-2.4c0.5-0.5,0.9-1.1,1.4-1.6c-2.1-1.6-4.2-3.2-6.3-4.8c0,3.9,0,7.8,0,11.7
		c6.4,0,12.8,0,19.3,0c0-3.9,0-7.8,0-11.7c-2.1,1.6-4.2,3.2-6.3,4.8c0.1,0.1,0.2,0.2,0.3,0.4c1.1,1.2,2.2,2.5,3.3,3.7
		c0,0.1,0,0.1,0.1,0.2c-0.1,0-0.1,0-0.2-0.1c-0.8-0.7-1.6-1.4-2.4-2.1C14.3,21.7,13.7,21.1,13.1,20.6z M1.6,14.7
		c0.1,0.1,0.1,0.1,0.1,0.1c2.8,2.2,5.7,4.3,8.5,6.5c0.2,0.1,0.3,0.1,0.5,0c2.5-1.9,5.1-3.9,7.6-5.8c0.3-0.2,0.6-0.5,1-0.8
		C13.4,14.7,7.6,14.7,1.6,14.7z"/>
</g>
</svg>
