<?xml version="1.0" encoding="utf-8"?>
<!-- Generator: Adobe Illustrator 19.2.0, SVG Export Plug-In . SVG Version: 6.00 Build 0)  -->
<svg version="1.1" id="Calque_1" xmlns="http://www.w3.org/2000/svg" xmlns:xlink="http://www.w3.org/1999/xlink" x="0px" y="0px"
	 viewBox="0 0 21 44" style="enable-background:new 0 0 21 44;" xml:space="preserve">
<style type="text/css">
	.st0{fill:#FFFFFF;}
</style>
<g>
	<path d="M15.9,12.6c-0.5,0.3-0.9,0.6-1.4,0.9c0.1,0,0.2,0,0.3,0.1c0.5,0.2,0.7,0.6,0.6,1.1c0,0.2-0.1,0.4-0.1,0.5
		c0,0.1,0.1,0.2,0.1,0.2c0.1,0,0.2,0,0.3,0c0,0,0.1-0.1,0.1-0.2c0-0.6,0.1-1.1,0.3-1.6c0.3-0.7,0.8-1.1,1.5-1c0.2,0,0.3,0.1,0.4,0.1
		c0.1,0,0.2-0.1,0.3-0.1c0.3,0,0.5,0,0.8,0c0,0.1,0,0.1,0,0.2c-0.2,0.7-0.3,1.5-0.5,2.2c-0.1,0.4,0,0.5,0.4,0.5
		c-0.1,0.3-0.3,0.6-0.6,0.6c-0.4,0.1-0.7-0.1-0.9-0.5c-0.2,0.3-0.5,0.5-0.9,0.5c-0.4,0-0.7-0.1-0.9-0.4c-0.1,0.1-0.2,0.2-0.3,0.2
		c-0.2,0.1-0.3,0.2-0.5,0.2c-0.6,0-1-0.3-0.9-1c0-0.2,0.1-0.4,0.1-0.5c0-0.2,0-0.4-0.2-0.5c-0.2-0.1-0.4,0-0.5,0.1
		c0,0-0.1,0.1-0.1,0.2c-0.1,0.5-0.2,1-0.3,1.6c0,0.1,0,0.1-0.1,0.2c-0.3,0-0.7,0-1,0c0-0.1,0-0.2,0-0.3c-0.9,0.5-1.3,0.4-1.6-0.2
		c-0.2,0.3-0.5,0.5-0.9,0.5c-0.4,0-0.7-0.1-0.9-0.5c-0.1,0.1-0.2,0.2-0.4,0.3c-0.2,0.2-0.4,0.3-0.7,0.2c-0.5,0-0.8-0.4-0.7-0.8
		c0.1-0.5,0.2-1,0.3-1.5c0-0.1,0-0.2,0-0.2c0-0.2,0-0.3-0.2-0.4c-0.2-0.1-0.4,0-0.5,0.1c-0.1,0-0.1,0.2-0.1,0.2
		C6.4,14.4,6.2,15.2,6,16c0,0.1,0,0.1,0,0.2c-0.3,0-0.7,0-1,0c0.1-0.5,0.2-1,0.3-1.5c0.2-1,0.5-2.1,0.7-3.1c0-0.2,0.1-0.2,0.2-0.2
		c0.3,0,0.6-0.1,0.9-0.1c-0.1,0.6-0.2,1.2-0.4,1.8c0.2-0.1,0.4-0.2,0.6-0.3c0.6-0.2,1.2,0.4,1.1,1c-0.1,0.5-0.2,0.9-0.3,1.4
		c0,0.2-0.1,0.3,0.1,0.4c0.2,0.1,0.5,0,0.6-0.1c0,0,0-0.1,0-0.2c0-0.6,0.1-1.2,0.4-1.7c0.3-0.6,0.8-0.9,1.5-0.9
		c0.2,0,0.3,0.1,0.4,0.1c0.1,0,0.2-0.1,0.3-0.1c0.3,0,0.5,0,0.8,0c-0.1,0.3-0.1,0.6-0.2,0.8c-0.1,0.5-0.2,1.1-0.3,1.6
		c-0.1,0.3,0,0.4,0.2,0.4c0.2,0.1,0.5-0.1,0.5-0.3c0.3-1.2,0.5-2.5,0.8-3.7c0-0.1,0-0.1,0.1-0.2c0.3,0,0.7-0.1,1-0.1
		c-0.2,0.8-0.3,1.6-0.5,2.5c0.1-0.1,0.2-0.1,0.3-0.2c0.2-0.2,0.5-0.4,0.7-0.6C15.1,12.6,15.5,12.6,15.9,12.6z M16.8,15
		c0,0.4,0.1,0.6,0.3,0.6c0.2,0,0.5-0.2,0.5-0.4c0.1-0.6,0.3-1.3,0.4-2c0-0.1,0-0.2-0.1-0.2c-0.2-0.1-0.5,0-0.7,0.2
		C17,13.8,16.9,14.4,16.8,15z M9.8,15c0,0.1,0,0.2,0,0.2c0.1,0.1,0.1,0.3,0.3,0.4c0.2,0.1,0.3,0,0.4-0.1c0.1-0.1,0.2-0.3,0.2-0.4
		c0.1-0.6,0.3-1.1,0.4-1.7c0-0.2,0-0.3-0.2-0.3c-0.1,0-0.3,0-0.3,0.1c-0.1,0.1-0.2,0.2-0.3,0.4C9.9,14,9.8,14.5,9.8,15z"/>
	<path d="M8.5,30.7c0-0.3-0.4-0.2-0.3-0.5c-0.1,0.1-0.2,0.1-0.3,0.1c-0.1-0.3,0.2-0.7,0.6-0.8c-0.1-0.2-0.1-0.4-0.2-0.6
		c0-0.1,0-0.2-0.1-0.4c0-0.4-0.2-0.7-0.4-1.1c-0.5-0.7-0.7-1.4-0.9-2.2c-0.2-0.8-0.5-1.7-0.7-2.5c0-0.1-0.1-0.2-0.1-0.3
		c-0.5-0.5-0.9-1.1-1.4-1.6c-0.4-0.5-0.6-1-0.6-1.6c0-0.2,0.1-0.4,0.4-0.5c0.3-0.1,0.4,0,0.6,0.2c0.5,0.6,1.1,1.2,1.6,1.8
		c0.2,0.2,0.4,0.4,0.6,0.7c0-0.1,0-0.1,0-0.1c0.1-0.4,0.5-0.6,1-0.5c0.1,0,0.1,0.1,0.2,0c0.1,0,0.2,0,0.2-0.1C9,20.3,9.6,20,10,20.1
		c0.1,0,0.2,0.1,0.3,0.1c0.1,0,0.2,0,0.2-0.1c0.1-0.4,0.4-0.4,0.7-0.5c0.6-0.1,0.9,0.1,1.2,0.5c0.3,0.4,0.6,0.8,0.8,1.3
		c0.1,0.3,0.2,0.6,0.3,0.9c0,0.1,0,0.1,0.1,0.2c0.3-0.3,0.5-0.6,0.8-0.9c0.3-0.4,0.7-0.8,1-1.1c0.4-0.4,1-0.5,1.6-0.3
		c0.3,0.1,0.4,0.3,0.4,0.6c0,0.1-0.1,0.1-0.1,0.2C17.2,20.9,17.1,21,17,21c-0.3,0.1-0.5,0.3-0.6,0.6c-0.1,0.2-0.2,0.5-0.3,0.7
		c-0.2,0.5-0.6,1-0.7,1.5c-0.2,0.8-0.7,1.5-1.2,2.1c-0.4,0.4-0.8,0.8-1.1,1.3c-0.1,0.1-0.2,0.3-0.2,0.5c0,0.3,0,0.6,0,0.8
		c0,0.2,0,0.3-0.2,0.4c-0.1-0.1-0.2-0.1-0.3-0.2c0.1-0.4-0.1-0.8-0.3-1.2c0-0.1-0.2-0.2-0.3-0.2c-0.4,0-0.7,0-1.1,0c0,0-0.1,0-0.1,0
		c-0.6,0.5-1.3,0.8-2,0.9c0,0-0.1,0-0.1,0c0.1,0.3,0.1,0.5,0.2,0.8c0,0.1,0,0.2,0.1,0.3c0,0,0,0.1,0,0.1c0.2,0.1,0.1,0.2,0,0.3
		C8.6,29.9,8.5,30,8.4,30C8.8,30.2,8.8,30.4,8.5,30.7z M13,23.3c-0.1,0-0.2,0.1-0.3,0.1c-0.2,0.1-0.4,0.2-0.5,0.4
		c-0.1,0.2-0.2,0.3-0.5,0.3c-0.1,0-0.3,0.1-0.4,0.2c-0.2,0.1-0.3,0.3-0.5,0.3c-0.4,0.2-0.8,0.8-0.8,1.2c0,0,0,0,0,0.1
		c0.2,0.3,0.4,0.7,0.5,1c0,0.1,0.1,0.1,0.2,0.1c0.4,0,0.7,0,1.1,0c0.5,0,0.9-0.2,1.3-0.5c0.5-0.6,1-1.2,1.5-1.8c0,0,0-0.1,0.1-0.1
		c0.2-0.7,0.4-1.3,0.8-1.9c-0.1-0.1-0.1-0.1-0.2-0.1c0.1,0,0.1,0,0.2-0.1c0,0,0-0.1,0,0c0.1-0.1,0.3-0.2,0.3-0.3
		c0.3-0.7,0.7-1.3,1.3-1.7c0,0,0.1-0.2,0-0.2c-0.1-0.1-0.2-0.2-0.3-0.2c-0.5,0-1,0-1.3,0.3c-0.3,0.2-0.5,0.5-0.7,0.7
		c-0.3,0.3-0.2,0.3,0,0.6c0.1,0.1,0.1,0.2,0.2,0.3c0,0-0.1,0.1-0.1,0.1c-0.1-0.1-0.2-0.1-0.3-0.2c-0.1-0.1-0.2-0.2-0.3-0.3
		c-0.2,0.3-0.5,0.6-0.7,0.9c-0.1,0.1-0.1,0.2,0,0.3c0.2,0.3,0.3,0.7,0.4,1c-0.4-0.2-0.5-0.7-0.7-1.1c-0.3,0.2-0.1,0.5-0.2,0.7
		c0,0-0.1,0-0.1,0c0,0.2,0.1,0.4,0.1,0.6c0,0,0,0-0.1,0C13.2,23.9,13.1,23.6,13,23.3z M10.1,24.7c-0.4,0.2-0.7,0.3-1.1,0.1
		c-0.4-0.2-0.8-0.4-1-0.8c-0.2-0.3-0.4-0.4-0.7-0.4c0,0,0,0,0,0c-0.2,0.1-0.4,0.1-0.5,0.2c-0.1,0,0,0.2,0,0.4
		c0.2,0.8,0.5,1.7,0.8,2.5c0.1,0.3,0.3,0.6,0.5,0.9c0.1,0.1,0.2,0.2,0.4,0.3c0.5,0.2,1,0.1,1.4-0.1c0.3-0.1,0.4-0.3,0.3-0.6
		c-0.1-0.2-0.2-0.4-0.3-0.6c0-0.1-0.1-0.2-0.1-0.3c0-0.4,0.1-0.9,0.3-1.2C10.3,24.8,10.3,24.7,10.1,24.7z M12.6,21.2
		c0.2-0.2,0.2-0.4,0-0.6c-0.2-0.2-0.3-0.4-0.5-0.6c-0.3-0.3-0.6-0.5-1.1-0.3c0,0,0,0,0,0c-0.3,0.1-0.4,0.2-0.4,0.5
		c0,0.6,0.1,1.2,0.1,1.9c0,0.2,0.1,0.2,0.2,0.2c0.2,0,0.4,0,0.6-0.1c0,0,0,0,0,0.1c-0.3,0.1-0.5,0.2-0.8,0.2
		c0.1,0.2,0.2,0.5,0.2,0.7c0.2,0,0.5-0.1,0.6,0c0.2,0.1,0.3,0.3,0.4,0.4c0.3-1.1,0.2-2.2,0.3-3.3c0,0,0.1,0,0.1,0
		C12.5,20.7,12.6,20.9,12.6,21.2z M9.9,23.5C9.9,23.5,9.9,23.4,9.9,23.5c0.1-0.1,0.1-0.1,0.2-0.1c0.2-0.1,0.4-0.1,0.6-0.2
		c0,0,0.1-0.1,0.1-0.2c-0.3-0.8-0.2-1.6-0.2-2.3c0-0.3-0.2-0.5-0.4-0.5c-0.3,0-0.6,0.1-0.9,0.3C9,20.5,8.9,20.7,9,21
		c0.1,0.6,0.2,1.2,0.3,1.8c0.1,0.6,0.4,1.1,0.9,1.5c0.3-0.3,0.6-0.4,1-0.1c-0.1-0.3-0.3-0.5-0.4-0.8C10.5,23.4,10.2,23.6,9.9,23.5z
		 M9.4,23.6c-0.2-0.9-0.4-1.7-0.6-2.5c0-0.1-0.1-0.1-0.1-0.1C8.3,20.8,8,20.8,7.7,21c-0.3,0.2-0.3,0.5-0.2,0.7
		c0.2,0.7,0.4,1.4,0.7,2c0.2,0.4,0.6,0.7,1,0.8c0.1-0.1,0.1-0.3,0.2-0.4c0.1-0.1,0.2-0.2,0.3-0.3c-0.1-0.1-0.1-0.2-0.2-0.3
		c-0.3,0.3-0.7,0.4-0.9,0.3C8.8,23.8,9.1,23.7,9.4,23.6z M5.7,20.3c0-0.1,0-0.2,0-0.2c-0.2-0.3-0.5-0.7-0.7-1
		c-0.1-0.1-0.3-0.2-0.5-0.1c-0.2,0.1-0.3,0.2-0.3,0.4c-0.1,0.6,0.2,1,0.6,1.3c0.2,0.2,0.3,0.2,0.5,0c0.1-0.1,0.2-0.2,0.3-0.2
		c0,0,0,0,0,0.1c-0.2,0.1-0.3,0.3-0.6,0.5c0.2,0.2,0.3,0.4,0.5,0.6C5.8,21.4,6,21.2,6.1,21c0.1-0.1,0.1-0.3,0.1-0.3
		C6.1,20.5,6,20.3,5.7,20.3z M7.7,23.3c-0.1-0.2-0.2-0.4-0.3-0.6c0,0,0,0,0,0c0.1,0,0.1,0.1,0.2,0.1c0,0,0,0,0.1,0
		c-0.1-0.2-0.2-0.3-0.3-0.5c0,0-0.1-0.1,0-0.1c0-0.1,0-0.1,0.1-0.2c0,0,0,0-0.1,0C7.1,22,7,22.2,6.8,22.3c-0.5,0.3-0.4,0.5-0.2,0.8
		c0,0.1,0.1,0.2,0.1,0.3c0,0.1,0.1,0.2,0.3,0.1C7.2,23.4,7.4,23.4,7.7,23.3z M7.1,21.7c-0.2-0.3-0.4-0.5-0.6-0.8
		c0,0-0.1-0.1-0.2-0.1c0,0-0.1,0.1-0.1,0.1c0,0.2-0.1,0.4-0.3,0.4c0,0,0,0.1,0,0.1c0,0,0,0.1,0,0.1c-0.2,0.1-0.1,0.3,0,0.4
		c0.2,0.2,0.3,0.3,0.5,0.5C6.7,22.2,6.9,21.9,7.1,21.7z M13.1,21.9C13.1,21.9,13.2,21.9,13.1,21.9c0,0.1-0.1,0.3-0.2,0.3
		c-0.1,0.1-0.3,0.2-0.4,0.3c-0.1,0.1-0.1,0.3,0,0.3c0.2,0,0.4,0,0.5,0c0.2,0,0.3-0.2,0.2-0.4c-0.1-0.4-0.2-0.7-0.4-1.1
		c-0.4,0.3-0.6,0.7-0.4,0.9C12.8,22.2,12.9,22,13.1,21.9z M11.2,23.6c0.1,0.4,0.4,0.5,0.6,0.3c0.1,0,0.1-0.2,0.1-0.3
		c0-0.1-0.2-0.2-0.2-0.2C11.5,23.5,11.4,23.6,11.2,23.6z M11.2,24.3c-0.2-0.1-0.3-0.2-0.4-0.2c-0.1,0-0.2,0.1-0.3,0.1
		c-0.1,0-0.1,0.1-0.1,0.2c0,0,0.1,0.1,0.2,0.1C10.7,24.6,10.9,24.5,11.2,24.3z M9.5,24.7c0.1-0.1,0.2-0.2,0.3-0.3
		c0,0-0.1-0.1-0.1-0.1c-0.1,0.1-0.3,0-0.4,0.2C9.4,24.5,9.5,24.6,9.5,24.7z"/>
	<path d="M3.1,14.4c-0.1,0-0.2,0-0.2,0c-0.4,0.1-0.6,0.4-0.6,0.8c0,0.3,0.2,0.6,0.6,0.6c0.3,0.1,0.7-0.1,0.8-0.5
		c0.2-0.5,0.1-1-0.2-1.4c-0.2-0.3-0.4-0.5-0.6-0.7c-0.1-0.1-0.2-0.2-0.3-0.4c-0.4-0.5-0.3-1.1,0.1-1.5c0.6-0.5,1.2-0.6,2-0.4
		c0.5,0.2,0.7,0.8,0.4,1.2c-0.2,0.3-0.5,0.3-0.7,0.1c0.1-0.2,0.2-0.3,0.3-0.5c0.1-0.3-0.1-0.5-0.4-0.6c-0.5-0.1-0.9,0.3-0.8,0.8
		c0.1,0.3,0.3,0.6,0.5,0.8c0.2,0.2,0.5,0.4,0.7,0.7C5,14,5,14.6,4.8,15.2c-0.2,0.6-0.7,0.9-1.3,1c-0.4,0.1-0.9,0.1-1.3-0.1
		c-0.6-0.2-0.8-0.7-0.7-1.3c0.1-0.5,0.6-0.8,1.2-0.7C2.9,14.1,3,14.2,3.1,14.4z"/>
	<path d="M17.1,17.4c0.4,0,0.8-0.1,1.2-0.1c0,0,0.1,0.1,0.1,0.1c0.2,0.4,0.4,0.7,0.6,1.2c-0.5,0-0.9,0.2-1.3-0.1c0,0-0.1,0-0.1-0.1
		C17.4,18.1,17.3,17.8,17.1,17.4z"/>
	<path d="M10.3,17.7c0-0.1,0-0.2,0-0.3c0,0,0.1,0,0.1,0c0.1,0.1,0.2,0.1,0.4,0c0.2-0.3,0.8-0.3,1.1,0c0.3,0.3,0.3,0.8,0,1.1
		c-0.3,0.3-0.8,0.3-1.1,0c-0.1-0.1-0.1-0.2-0.2-0.3C10.5,18,10.4,17.8,10.3,17.7L10.3,17.7z M10.9,18c0,0.3,0.1,0.5,0.3,0.5
		c0.2,0,0.4-0.1,0.5-0.2c0.1-0.2,0.1-0.5-0.1-0.6c-0.3-0.2-0.4,0.2-0.6,0.2C11,17.8,11,17.9,10.9,18z"/>
	<path d="M18.1,19.7c0.1,0,0.1,0.1,0.2,0c0.1,0,0.2,0,0.2-0.1c0.1-0.1,0-0.2-0.1-0.3c-0.1,0-0.2,0-0.4,0c-0.1-0.2-0.1-0.4-0.2-0.6
		c0.4,0,0.8,0,1.2-0.1c0,0,0.1,0,0.1,0c0.1,0.2,0.2,0.4,0.2,0.7c0,0.3-0.1,0.5-0.5,0.6c-0.1,0-0.2,0-0.3,0
		C18.1,20.1,18.1,20,18.1,19.7z"/>
	<path d="M12,17.4c0.1,0,0.1,0.1,0.2,0.1c0.1,0,0.2,0,0.2,0c0.2-0.3,0.6-0.3,0.9-0.2c0.3,0.1,0.5,0.4,0.4,0.9c0,0.3-0.3,0.5-0.6,0.5
		c-0.5,0.1-0.8-0.2-0.9-0.7c0-0.1-0.1-0.1-0.1-0.2C12,17.7,12,17.6,12,17.4z M13.6,18c0-0.2-0.1-0.4-0.3-0.4c-0.1,0-0.6,0.3-0.6,0.5
		c0,0.3,0.2,0.5,0.4,0.5C13.4,18.5,13.6,18.3,13.6,18z"/>
	<path d="M10.3,17.7c0,0.2,0,0.4-0.1,0.6c0,0.1,0,0.2,0,0.2c0,0.1-0.1,0.1-0.1,0.2c-0.1-0.1-0.1-0.1-0.2-0.2c0,0,0-0.1,0-0.1
		c0-0.1,0-0.2-0.1-0.3c-0.1,0-0.2,0-0.4,0c0,0.1,0,0.2,0,0.4c-0.2,0-0.2,0-0.3-0.3c0,0-0.1,0-0.1,0c0,0-0.1,0-0.1,0
		c0-0.1,0.1-0.2,0.1-0.3C9,18,9,17.9,9,17.8c0-0.1,0-0.3,0-0.4c0-0.2,0.2-0.2,0.3-0.2c0.1,0,0.1,0.2,0.1,0.2c0,0.2,0,0.3-0.1,0.5
		c0.1,0,0.3,0,0.4,0.1c0-0.2,0.1-0.4,0.1-0.6c0-0.2,0.1-0.3,0.3-0.3c0.1,0,0.2,0.1,0.2,0.2c-0.1,0-0.2,0-0.2,0.1
		C10.2,17.5,10.2,17.6,10.3,17.7C10.3,17.7,10.3,17.7,10.3,17.7z"/>
	<path d="M7.4,17.6c-0.2,0.2-0.3,0.1-0.5-0.1c0-0.1-0.2-0.1-0.3,0c-0.1,0-0.2,0.2-0.2,0.3c0,0.1,0.1,0.1,0.2,0.1
		c0.1,0,0.2,0,0.3-0.1c0.2,0,0.3,0.1,0.3,0.3c0.1,0.3,0,0.5-0.2,0.6c-0.3,0.1-0.6,0.2-0.9,0c-0.2-0.1-0.2-0.3,0-0.4
		c0.2,0.1,0.3,0.2,0.5,0.2c0.1,0,0.2,0,0.3,0c0.1,0,0.1-0.1,0.1-0.2c-0.1,0-0.1-0.1-0.2-0.1c-0.1,0-0.2,0-0.3,0
		c-0.2,0-0.3,0.1-0.4-0.1c-0.1-0.1-0.1-0.3,0-0.4c0.1-0.4,0.8-0.6,1.1-0.3C7.4,17.3,7.4,17.5,7.4,17.6L7.4,17.6z"/>
	<path d="M7.4,17.6c0.3-0.3,0.6-0.5,0.9-0.4c0.2,0,0.3,0.1,0.4,0.3c0.2,0.2,0,0.4-0.2,0.5c-0.2,0-0.3,0-0.3-0.2
		c0-0.1-0.1-0.2-0.1-0.2c-0.2,0-0.3,0-0.5,0.1c-0.2,0.1-0.2,0.3-0.2,0.5c0,0.2,0.2,0.3,0.3,0.3c0.2,0,0.3-0.1,0.5-0.2
		c0.1,0,0.1-0.1,0.2-0.1c0.1,0.1,0.1,0.1,0.1,0.2c0,0.2-0.1,0.3-0.3,0.4c-0.3,0.1-0.5,0-0.8-0.1c-0.2-0.2-0.3-0.4-0.3-0.7
		C7.4,17.7,7.4,17.7,7.4,17.6C7.4,17.6,7.4,17.6,7.4,17.6z"/>
	<path d="M3.1,24.8c-0.3,0.3-0.3,0.3-0.5,0c-0.1-0.1-0.2-0.2-0.3-0.3c-0.1-0.1-0.2-0.2-0.1-0.4c0,0,0-0.1,0-0.1
		c-0.2-0.3,0.1-0.6,0.2-0.8c0-0.1,0.1-0.1,0.2-0.1c0,0,0.1,0.1,0.1,0.2c0.1,0.5,0.3,0.9,0.4,1.4C3,24.7,3.1,24.8,3.1,24.8z"/>
	<path d="M14.2,18.3c0.7-0.1,0.9,0,0.9,0.4c-0.2,0-0.4-0.1-0.7-0.1c-0.1,0-0.2,0.1-0.2,0.1c-0.1,0.1-0.2,0.2-0.3,0.1
		c-0.1,0,0-0.2-0.1-0.3c0-0.1,0-0.1,0-0.2c0-0.2,0-0.5,0-0.7c0-0.1,0.1-0.3,0.2-0.3c0.2,0,0.3,0,0.2,0.2c0,0.2-0.1,0.4-0.1,0.6
		C14.2,18.2,14.2,18.2,14.2,18.3z"/>
	<path d="M3.3,27c-0.1-0.3,0-0.4,0.3-0.5c0,0,0,0,0,0c0.1,0,0.2-0.1,0.2-0.1c0.1,0.1,0.2,0.2,0.3,0.3c0,0,0,0,0,0.1
		c0,0.2-0.3,0.5-0.5,0.5c0-0.1,0-0.3-0.1-0.4c0,0,0,0-0.1,0C3.4,26.9,3.3,27,3.3,27z"/>
	<path d="M3.4,26C3.2,26,3.1,26,3,26.1c0.1,0.3-0.2,0.3-0.4,0.4c0-0.1-0.1-0.1-0.1-0.2c0.2-0.1,0.1-0.2,0.1-0.3c0-0.1,0-0.2,0-0.3
		c0-0.1,0.1-0.2,0.3-0.1C3.1,25.7,3.2,25.8,3.4,26z"/>
	<path d="M18.3,21.5c0-0.2,0-0.5-0.1-0.7c0.1,0,0.1-0.1,0.2-0.1c0-0.1-0.1-0.1-0.1-0.2c0,0,0.1-0.1,0.1-0.1c0.1,0,0.1-0.1,0.2-0.1
		c0.1,0,0.1,0.1,0.1,0.2C18.7,20.9,18.6,21.2,18.3,21.5C18.4,21.5,18.4,21.5,18.3,21.5z"/>
	<path d="M17.7,16.5c0.1,0.1,0.1,0.2,0.2,0.3c0.1,0,0.1-0.1,0.2-0.1c0.1,0.1,0.1,0.2,0.2,0.3c-0.3,0-0.6,0-0.9,0
		c0,0-0.1-0.2-0.1-0.2C17.4,16.7,17.5,16.7,17.7,16.5z"/>
	<path d="M2.3,25.1c0.1,0.1,0.2,0.1,0.3,0.1c0,0.1,0,0.2-0.1,0.2c-0.1,0.1-0.1,0.2,0,0.3c0,0,0,0.1,0,0.1c0,0-0.1,0-0.1,0
		c-0.1-0.4-0.3-0.7-0.4-1.1C2.1,24.8,2.3,24.9,2.3,25.1z"/>
	<path d="M10.5,29.6c0,0.4,0,0.5-0.2,0.6c-0.3,0-0.2-0.3-0.4-0.4C10.2,29.7,10.4,29.6,10.5,29.6z"/>
	<path d="M5.8,28.9c-0.1,0.2-0.2,0.3-0.3,0.4c-0.2-0.1-0.2-0.3-0.2-0.4C5.3,28.8,5.5,28.9,5.8,28.9z"/>
	<path d="M13.8,28.9c0.1-0.1,0.2-0.1,0.4-0.2c0,0,0.1,0,0.2,0.1c0,0,0,0.1,0,0.2c0,0-0.1,0-0.2,0c-0.1,0-0.1,0-0.2,0
		C13.9,29,13.9,29,13.8,28.9C13.8,28.9,13.8,28.9,13.8,28.9z"/>
	<path d="M16.3,27c0.1,0.3-0.1,0.4-0.1,0.6c-0.1-0.1-0.2-0.1-0.2-0.2C16.1,27.2,16.2,27.1,16.3,27z"/>
	<path d="M7.3,29.6c0-0.1,0.1-0.2,0.1-0.4c-0.1-0.1-0.2-0.1-0.2-0.2c0,0,0,0,0-0.1c0.1,0,0.2,0.1,0.4,0.2c-0.1,0.2-0.1,0.3-0.2,0.5
		C7.4,29.6,7.3,29.6,7.3,29.6z"/>
	<path d="M3,25.2c0.2-0.2,0.2-0.1,0.4,0.4C3.3,25.5,3.2,25.4,3,25.2z"/>
	<path d="M17.1,16.9c-0.1,0.1-0.1,0.2-0.2,0.2c-0.1,0-0.2-0.1-0.2-0.2c0,0,0,0,0,0C16.8,16.8,17,16.8,17.1,16.9
		C17.1,16.8,17.1,16.8,17.1,16.9z"/>
	<path d="M4.2,26.8c0.1,0.1,0.2,0.2,0.3,0.3c-0.1,0-0.2,0.1-0.2,0.1C4.3,27,4.2,26.9,4.2,26.8C4.2,26.8,4.2,26.8,4.2,26.8z"/>
	<path d="M4.8,28.7c-0.1,0-0.1,0-0.3,0.1c0-0.1,0-0.2,0.1-0.3C4.6,28.5,4.7,28.5,4.8,28.7C4.8,28.6,4.8,28.6,4.8,28.7z"/>
	<path d="M14.8,28.3c0,0.3-0.2,0.4-0.4,0.3C14.6,28.5,14.7,28.4,14.8,28.3z"/>
	<path d="M6.5,30c0-0.1,0-0.2-0.1-0.3C6.6,29.8,6.6,29.8,6.5,30C6.5,30,6.5,30,6.5,30z"/>
	<path class="st0" d="M13,23.3c0.1,0.3,0.2,0.6,0.2,0.9c0,0,0,0,0.1,0c0-0.2-0.1-0.4-0.1-0.6c0.1,0,0.1,0,0.1,0
		c0-0.2-0.1-0.5,0.2-0.7c0.2,0.4,0.3,0.8,0.7,1.1c-0.1-0.3-0.3-0.7-0.4-1c-0.1-0.1,0-0.2,0-0.3c0.2-0.3,0.4-0.6,0.7-0.9
		c0.1,0.1,0.2,0.3,0.3,0.3c0.1,0.1,0.2,0.1,0.3,0.2c0,0,0.1-0.1,0.1-0.1C15,22.1,15,22,14.9,21.9c-0.3-0.3-0.3-0.3,0-0.6
		c0.2-0.3,0.5-0.5,0.7-0.7c0.4-0.3,0.9-0.4,1.3-0.3c0.1,0,0.2,0.1,0.3,0.2c0,0,0,0.2,0,0.2c-0.6,0.4-1,1-1.3,1.7
		c0,0.1-0.2,0.2-0.3,0.3c0,0,0,0,0,0c-0.1,0-0.1,0-0.2,0.1c0.1,0.1,0.1,0.1,0.2,0.1c-0.4,0.6-0.6,1.2-0.8,1.9c0,0,0,0.1-0.1,0.1
		c-0.5,0.6-1,1.2-1.5,1.8c-0.3,0.4-0.7,0.6-1.3,0.5c-0.4,0-0.7,0-1.1,0c-0.1,0-0.2-0.1-0.2-0.1c-0.2-0.3-0.4-0.7-0.5-1
		c0,0,0,0,0-0.1c0-0.4,0.4-1.1,0.8-1.2c0.2-0.1,0.4-0.2,0.5-0.3c0.1-0.1,0.3-0.2,0.4-0.2c0.3,0,0.4-0.2,0.5-0.3
		c0.1-0.2,0.3-0.3,0.5-0.4C12.9,23.4,12.9,23.4,13,23.3z"/>
	<path class="st0" d="M10.1,24.7c0.2,0.1,0.2,0.2,0.1,0.3c-0.2,0.4-0.3,0.8-0.3,1.2c0,0.1,0,0.2,0.1,0.3c0.1,0.2,0.2,0.4,0.3,0.6
		c0.1,0.3,0,0.5-0.3,0.6c-0.5,0.2-1,0.3-1.4,0.1c-0.1-0.1-0.3-0.2-0.4-0.3c-0.2-0.3-0.3-0.6-0.5-0.9c-0.3-0.8-0.5-1.7-0.8-2.5
		c0-0.1-0.1-0.3,0-0.4c0.2-0.1,0.4-0.1,0.5-0.2c0,0,0,0,0,0c0.3,0,0.5,0.1,0.7,0.4c0.2,0.4,0.6,0.6,1,0.8C9.4,25,9.8,24.8,10.1,24.7
		z"/>
	<path class="st0" d="M12.6,21.2c0-0.3-0.1-0.5-0.1-0.8c0,0-0.1,0-0.1,0c-0.1,1.1,0,2.2-0.3,3.3c-0.1-0.2-0.3-0.4-0.4-0.4
		c-0.2-0.1-0.4,0-0.6,0c-0.1-0.2-0.2-0.4-0.2-0.7c0.3-0.1,0.5-0.2,0.8-0.2c0,0,0,0,0-0.1c-0.2,0-0.4,0.1-0.6,0.1
		c-0.2,0-0.2,0-0.2-0.2c0-0.6-0.1-1.2-0.1-1.9c0-0.3,0.1-0.4,0.4-0.5c0,0,0,0,0,0c0.4-0.2,0.8,0,1.1,0.3c0.2,0.2,0.3,0.4,0.5,0.6
		C12.8,20.8,12.8,21,12.6,21.2z"/>
	<path class="st0" d="M9.9,23.5c0.3,0.2,0.6-0.1,0.9-0.2c0.1,0.3,0.3,0.5,0.4,0.8c-0.4-0.2-0.7-0.2-1,0.1c-0.4-0.4-0.7-0.9-0.9-1.5
		C9.2,22.1,9.1,21.6,9,21c-0.1-0.3,0.1-0.4,0.2-0.5c0.3-0.1,0.6-0.2,0.9-0.3c0.3,0,0.4,0.2,0.4,0.5c0,0.8-0.1,1.6,0.2,2.3
		c0,0,0,0.2-0.1,0.2c-0.2,0.1-0.4,0.1-0.6,0.2C10,23.4,9.9,23.4,9.9,23.5C9.9,23.4,9.9,23.5,9.9,23.5z"/>
	<path class="st0" d="M9.4,23.6c-0.2,0.1-0.5,0.2-0.8,0.3c0.2,0.2,0.6,0.1,0.9-0.3c0.1,0.1,0.1,0.2,0.2,0.3
		c-0.1,0.1-0.2,0.2-0.3,0.3c-0.1,0.1-0.1,0.2-0.2,0.4c-0.4-0.1-0.8-0.3-1-0.8c-0.3-0.7-0.5-1.3-0.7-2c-0.1-0.3,0-0.6,0.2-0.7
		C8,20.8,8.3,20.8,8.7,21c0,0,0.1,0.1,0.1,0.1C9,21.9,9.1,22.7,9.4,23.6z"/>
	<path class="st0" d="M5.7,20.3c0.3-0.1,0.4,0.2,0.5,0.3c0,0.1,0,0.2-0.1,0.3c-0.1,0.2-0.3,0.4-0.5,0.6c-0.2-0.2-0.3-0.4-0.5-0.6
		c0.2-0.2,0.4-0.3,0.6-0.5c0,0,0,0,0-0.1c-0.1,0.1-0.2,0.2-0.3,0.2c-0.2,0.2-0.3,0.1-0.5,0c-0.4-0.4-0.6-0.8-0.6-1.3
		c0-0.2,0.1-0.3,0.3-0.4c0.2-0.1,0.4-0.1,0.5,0.1c0.3,0.3,0.5,0.7,0.7,1C5.8,20.1,5.7,20.2,5.7,20.3z"/>
	<path class="st0" d="M7.7,23.3c-0.3,0.1-0.5,0.1-0.8,0.2c-0.1,0-0.2,0-0.3-0.1c0-0.1-0.1-0.2-0.1-0.3c-0.1-0.3-0.2-0.6,0.2-0.8
		C7,22.2,7.1,22,7.3,21.9c0,0,0,0,0.1,0c0,0.1-0.1,0.1-0.1,0.2c0,0,0,0.1,0,0.1c0.1,0.2,0.2,0.4,0.3,0.5c0,0,0,0-0.1,0
		c-0.1,0-0.1-0.1-0.2-0.1c0,0,0,0,0,0C7.5,23,7.6,23.1,7.7,23.3z"/>
	<path class="st0" d="M7.1,21.7c-0.2,0.3-0.5,0.5-0.7,0.8c-0.2-0.2-0.4-0.3-0.5-0.5c-0.1-0.1-0.2-0.3,0-0.4c0,0,0-0.1,0-0.1
		c0,0,0-0.1,0-0.1c0.2,0,0.3-0.2,0.3-0.4c0,0,0.1-0.1,0.1-0.1c0.1,0,0.1,0,0.2,0.1C6.7,21.2,6.9,21.4,7.1,21.7z"/>
	<path class="st0" d="M13.1,21.9c-0.2,0.1-0.3,0.3-0.5,0.4c-0.2-0.3,0-0.6,0.4-0.9c0.1,0.4,0.3,0.8,0.4,1.1c0.1,0.2,0,0.3-0.2,0.4
		c-0.2,0-0.4,0-0.5,0c-0.1,0-0.2-0.2,0-0.3c0.1-0.1,0.3-0.2,0.4-0.3C13,22.2,13.1,22,13.1,21.9C13.2,21.9,13.1,21.9,13.1,21.9z"/>
	<path class="st0" d="M11.2,23.6c0.2,0,0.3-0.1,0.5-0.1c0.1,0,0.2,0.1,0.2,0.2c0,0.1,0,0.2-0.1,0.3C11.5,24.1,11.3,24,11.2,23.6z"/>
	<path class="st0" d="M11.2,24.3c-0.3,0.1-0.4,0.3-0.7,0.3c-0.1,0-0.2-0.1-0.2-0.1c0-0.1,0.1-0.1,0.1-0.2c0.1-0.1,0.2-0.2,0.3-0.1
		C10.9,24.1,11,24.2,11.2,24.3z"/>
	<path class="st0" d="M9.5,24.7c-0.1-0.1-0.1-0.1-0.1-0.2c0-0.2,0.2-0.2,0.4-0.2c0,0,0.1,0.1,0.1,0.1C9.8,24.4,9.7,24.5,9.5,24.7z"
		/>
</g>
</svg>
